<svg xmlns="http://www.w3.org/2000/svg" width="24.841" height="25.346" viewBox="0 0 24.841 25.346">
  <g id="_7123025_logo_google_g_icon" data-name="7123025_logo_google_g_icon" transform="translate(-30.025 -29.098)">
    <path id="Path_10880" data-name="Path 10880" d="M88.076,69.368a15.85,15.85,0,0,0-.221-2.568H75.9v4.887h6.847a5.76,5.76,0,0,1-2.54,3.838L84.293,78.7a12.462,12.462,0,0,0,3.782-9.332Z" transform="translate(-33.209 -27.293)" fill="#4280ef"/>
    <path id="Path_10881" data-name="Path 10881" d="M46.22,94.115a12.123,12.123,0,0,0,8.393-3.065L50.527,87.9a7.687,7.687,0,0,1-11.43-4l-4.2,3.23A12.66,12.66,0,0,0,46.22,94.115Z" transform="translate(-3.529 -39.672)" fill="#34a353"/>
    <path id="Path_10882" data-name="Path 10882" d="M35.568,62.517a7.7,7.7,0,0,1,0-4.859l-4.2-3.258a12.69,12.69,0,0,0,0,11.375Z" transform="translate(0 -18.316)" fill="#f6b704"/>
    <path id="Path_10883" data-name="Path 10883" d="M46.22,34.124a6.914,6.914,0,0,1,4.859,1.905L54.7,32.384A12.2,12.2,0,0,0,46.22,29.1,12.66,12.66,0,0,0,34.9,36.084l4.2,3.258A7.581,7.581,0,0,1,46.22,34.124Z" transform="translate(-3.529 0)" fill="#e54335"/>
  </g>
</svg>
