<svg xmlns="http://www.w3.org/2000/svg" width="19.293" height="20.49" viewBox="0 0 19.293 20.49">
  <path id="_1976053_home_home_page_homepage_homepages_icon" data-name="1976053_home_home page_homepage_homepages_icon" d="M20.921,8.5,13.462,2.434a2.512,2.512,0,0,0-3.154,0h0L2.85,8.494a1.105,1.105,0,0,0-.411.863v11.4A1.117,1.117,0,0,0,3.55,21.878h5a1.117,1.117,0,0,0,1.111-1.116V13.543h4.445v7.218a1.117,1.117,0,0,0,1.111,1.116h5a1.117,1.117,0,0,0,1.111-1.116V9.357A1.108,1.108,0,0,0,20.921,8.5Zm-.7,12.272h-5V13.538a1.108,1.108,0,0,0-1.111-1.106H9.662a1.108,1.108,0,0,0-1.111,1.106v7.229h-5V9.357L11.01,3.3a1.4,1.4,0,0,1,1.752,0l7.459,6.06v11.41Z" transform="translate(-2.239 -1.588)" fill="#fe0000" stroke="#fe0000" stroke-width="0.4"/>
</svg>
