<svg xmlns="http://www.w3.org/2000/svg" width="27.293" height="19.24" viewBox="0 0 27.293 19.24">
  <g id="Group_8949" data-name="Group 8949" transform="translate(-2.327 -6.38)">
    <path id="Path_10896" data-name="Path 10896" d="M17.62,7a.568.568,0,0,1-.62.62H15A.568.568,0,0,1,14.38,7,.568.568,0,0,1,15,6.38h2A.568.568,0,0,1,17.62,7Z" fill="#7f7f7f"/>
    <path id="Path_10897" data-name="Path 10897" d="M29.56,20.67a.812.812,0,0,0-.56-.29H27.57l-.04-.34a12.475,12.475,0,0,0-8.44-9.88,9.89,9.89,0,0,0-6.27,0c-4.37,1.36-7.96,5.6-8.35,9.87l-.03.35H3a.818.818,0,0,0-.59.33.551.551,0,0,0,0,.58A7.746,7.746,0,0,0,9.5,25.62H22.6a7.74,7.74,0,0,0,7.02-4.31A2.247,2.247,0,0,0,29.56,20.67ZM5.73,19.95a11.255,11.255,0,0,1,7.45-8.61h.01a9.961,9.961,0,0,1,5.52,0,11.21,11.21,0,0,1,7.56,8.61l.06.43H5.67Zm21.65,2.3a6.5,6.5,0,0,1-4.88,2.13H9.5a6.5,6.5,0,0,1-4.88-2.13l-.58-.63H27.96Z" fill="#7f7f7f"/>
  </g>
</svg>
